<svg xmlns="http://www.w3.org/2000/svg" id="レイヤー_1" data-name="レイヤー 1" viewBox="0 0 350 100"><defs><style>.cls-1{fill:#4d4d4d}.cls-2{fill:#597b60}.cls-3{fill:#ff847a}.cls-4{fill:#ffc636}</style></defs><title>BARTER_Q</title><path d="M210.61,48.22a.57.57,0,0,1-.4-1c.17-.17,4.17-4.12,7.75-4.12a12.1,12.1,0,0,1,4.09.86c1.41.48,2.52.86,3.58.33a.56.56,0,1,1,.5,1c-1.48.74-2.92.25-4.45-.27a11.14,11.14,0,0,0-3.72-.8c-3.12,0-6.92,3.76-7,3.79A.58.58,0,0,1,210.61,48.22Z" class="cls-1"/><path d="M212.39,57c-.14-.23-3.5-5.9-2.33-10.6.58-2.3,2.56-4.28,4.47-6.19s4-4,4.18-6.16c.23-2.64-6-7-8.39-8.52l.58-1c.95.58,9.25,5.77,8.93,9.57-.22,2.58-2.4,4.76-4.51,6.87-1.8,1.8-3.67,3.66-4.17,5.66-1.06,4.24,2.17,9.7,2.2,9.76Z" class="cls-1"/><path d="M136.51,80.76l-1.77-.88a12.15,12.15,0,0,1-1.23-5.48v-6c0-2-.09-4-.27-5.83s-.26-3.83-.26-5.84c.11-2.35.17-4.74.17-7.15s.09-4.8.27-7.16.26-4.71.26-7.07V28.27H128l-4.77.18a4.88,4.88,0,0,0-.62-.27A6,6,0,0,0,122,28a1.94,1.94,0,0,1-.62-.27,4.9,4.9,0,0,0-.62-.35,4.57,4.57,0,0,0-.44-.71,1.87,1.87,0,0,1-.35-.8,3.9,3.9,0,0,1-.09-.79v-.88l.88-1.77a7,7,0,0,1,4-1c1.47.06,2.92.06,4.33,0s2.86-.09,4.33-.09h4.33a23.15,23.15,0,0,0,4.06.35,29.59,29.59,0,0,1,4.07.27l4,.53a8.4,8.4,0,0,1,3.62,1.32,4.57,4.57,0,0,0,.44.71,1.94,1.94,0,0,1,.35.79,4.08,4.08,0,0,1,.09.8V27l-.88,1.77c-.24.12-.5.27-.8.44a2.73,2.73,0,0,1-.88.36,5,5,0,0,1-1,.08h-1.06a14.53,14.53,0,0,0-2.21-.53l-2.3-.35a14.85,14.85,0,0,0-2.3-.18h-2.38c0,2.71,0,5.37-.09,8s-.15,5.24-.27,8-.17,5.39-.17,8-.06,5.27-.18,7.87a35.86,35.86,0,0,1,.44,4.33q.09,2.2.09,4.41c0,1.48.06,2.95.18,4.42a30.86,30.86,0,0,1,0,4.51l-.89,1.77a3.85,3.85,0,0,0-.7.44,2.13,2.13,0,0,1-.8.35,4,4,0,0,1-.79.09Z" class="cls-2"/><path d="M180.57,82.07a15.61,15.61,0,0,0-3.45-.36H166.43l-.71.18a3.62,3.62,0,0,0-.62-.26l-.62-.18a2,2,0,0,1-.62-.27,5.51,5.51,0,0,0-.61-.35,9.14,9.14,0,0,0-.89-1.41,5.2,5.2,0,0,1-.79-1.51,5.42,5.42,0,0,1-.27-1.76V74.29q0-6.89.44-13.7t.62-13.78q.18-7,.44-13.79a60,60,0,0,1,2-13.34,10.43,10.43,0,0,1,1.06-.62,2.59,2.59,0,0,1,1.15-.26h2.56a18.89,18.89,0,0,0,5.21.7c1.83,0,3.62.06,5.39.18a32.9,32.9,0,0,1,5,.71A27,27,0,0,1,190.11,22a4.57,4.57,0,0,0,.44.71,1.88,1.88,0,0,1,.35.79,4.08,4.08,0,0,1,.09.8v.88l-.88,1.77c-.24.12-.5.26-.8.44a2.7,2.7,0,0,1-.88.35,4.46,4.46,0,0,1-.88.09h-1c-1.29-.23-2.59-.53-3.88-.88a15.55,15.55,0,0,0-4.16-.53c-1.47,0-2.91,0-4.33-.09a30.58,30.58,0,0,1-4.06-.44,49.79,49.79,0,0,1-.27,5.21c-.17,1.71-.29,3.45-.35,5.21l-.18,5.31c-.06,1.76-.09,3.59-.09,5.47,1.42.12,2.86.3,4.33.53a37.23,37.23,0,0,0,4.51.45c1.53.06,3.06.08,4.6.08a6.94,6.94,0,0,1,4.06,1.24,5.48,5.48,0,0,0,.44.71,2,2,0,0,1,.36.79,5.35,5.35,0,0,1,.08.89v1l-.88,1.77a4.57,4.57,0,0,0-.71.44,1.88,1.88,0,0,1-.79.35,4.08,4.08,0,0,1-.8.09h-.88A9.42,9.42,0,0,0,180,55a15.35,15.35,0,0,1-3.71-.09l-3.63-.53a15.21,15.21,0,0,0-3.71-.09,50,50,0,0,1-.26,5.13,46.26,46.26,0,0,0-.27,5V69.7c0,1.76-.06,3.47-.18,5.12h9.72a12.67,12.67,0,0,1,3,.35,4.66,4.66,0,0,1,1.59-.44c.59,0,1.18-.09,1.77-.09a17.4,17.4,0,0,0,1.76-.08,17.48,17.48,0,0,1,1.77-.09l1.77.88a4.57,4.57,0,0,0,.44.71,1.88,1.88,0,0,1,.35.79,4.08,4.08,0,0,1,.09.8v.88l-.88,1.77a5,5,0,0,1-2,1,10.49,10.49,0,0,1-2.39.27,9.81,9.81,0,0,0-2.3.26A9.22,9.22,0,0,1,180.57,82.07Z" class="cls-2"/><path d="M202.3,83.3l-1.77-.88a5.89,5.89,0,0,1-.79-1.41,4.42,4.42,0,0,1-.27-1.59V76.06q.54-6.9.71-13.88t.8-14q.61-7.07,1.06-14a95.56,95.56,0,0,1,1.85-13.61,6.76,6.76,0,0,1,2.21-1,11.86,11.86,0,0,1,2.56-.26H214l3.62.7a26.11,26.11,0,0,1,3.62,1,9.59,9.59,0,0,1,3.18,1.85c.94.83,1.89,1.71,2.83,2.65a15.72,15.72,0,0,1,2,3.45,17.63,17.63,0,0,1,1.15,3.89c.24,1.35.41,2.74.53,4.15a27.17,27.17,0,0,1,0,4.42,13.74,13.74,0,0,1-.35,3.09c-.24,1-.5,2-.8,3.09a10.06,10.06,0,0,1-1.32,2.92,12,12,0,0,1-2.12,2.39l-2.83,2.65c1.18,1.88,2.27,3.83,3.27,5.83a50.25,50.25,0,0,1,2.56,6.1c.71,2.06,1.47,4.12,2.3,6.18a24.57,24.57,0,0,1,1.59,6.45l-.88,1.77a4.88,4.88,0,0,0-.71.44,1.94,1.94,0,0,1-.8.36,4.8,4.8,0,0,1-.79.08h-.89l-1.76-.88a62.47,62.47,0,0,1-2.48-6q-1-3-2.21-6.1c-.76-2.06-1.62-4.06-2.56-6A60.24,60.24,0,0,0,217,58l-.53-.17-9.37,1.94c0,1.89,0,3.8-.09,5.74s-.14,3.86-.26,5.75-.18,3.8-.18,5.74a13.5,13.5,0,0,1-1.06,5.39,5.39,5.39,0,0,0-.7.44,2,2,0,0,1-.8.36,4.91,4.91,0,0,1-.8.08ZM220,49.2a6.33,6.33,0,0,0,1-.8c.29-.29.58-.59.88-.88s.56-.59.8-.89a3.27,3.27,0,0,0,.53-1,14.25,14.25,0,0,0,.53-2.21c.11-.76.2-1.53.26-2.3s.09-1.53.09-2.29V36.47a17.13,17.13,0,0,1-.27-1.94,5.22,5.22,0,0,0-.53-2c-.29-.59-.56-1.17-.79-1.76a4,4,0,0,0-1.24-1.6,7.69,7.69,0,0,0-2.56-1.76,19.91,19.91,0,0,0-2.83-.89,14.15,14.15,0,0,0-3.18-.35h-3.27q0,3.36-.26,6.63t-.62,6.54q-.36,3.27-.53,6.62l-.36,6.72h.71c.94-.23,1.94-.47,3-.71s2.07-.47,3-.7a26.33,26.33,0,0,0,2.83-.89A28.7,28.7,0,0,0,220,49.2Z" class="cls-2"/><path d="M15.5,42V40.88a7.43,7.43,0,0,0,6.28-4.22C23,34.31,23.5,31,23.94,28.36c.49-3,.74-4.45,1.74-4.45V25a.37.37,0,0,0,.19-.06,14.13,14.13,0,0,0-.82,3.57c-.45,2.73-1,6.12-2.26,8.62A8.55,8.55,0,0,1,15.5,42Z" class="cls-1"/><path d="M22.85,36.91c-.11,0-2.68,0-3.93-3.78-.74-2.24-2.13-6.4-2.86-6.4V25.61c1.47,0,2.45,2.72,3.93,7.17,1,2.92,2.79,3,2.87,3Z" class="cls-1"/><path d="M16.24,42.53l-.35-1.06c.53-.18,5.21-1.73,6.39-1.73a11.39,11.39,0,0,1,3.65,1.19l-.5,1a10.46,10.46,0,0,0-3.15-1.07A42.32,42.32,0,0,0,16.24,42.53Z" class="cls-1"/><path d="M13.27,82.6l-1.77-.89-.35-.53-1.59-.7a4.57,4.57,0,0,0-.44-.71,1.75,1.75,0,0,1-.35-.8l-.18-.88a4.85,4.85,0,0,1-.09-1A63.42,63.42,0,0,0,9,69V60.77a74.68,74.68,0,0,1,.44-8.13,74.76,74.76,0,0,0,.44-8.39v-23a4.33,4.33,0,0,0,.27-.62c.06-.17.12-.38.18-.62a1.68,1.68,0,0,1,.26-.61A6.86,6.86,0,0,0,11,18.8a14.45,14.45,0,0,0,1.68-.8,8.27,8.27,0,0,1,1.68-.7,9.28,9.28,0,0,1,1.86-.36c.65-.06,1.32-.09,2-.09s1.41.27,2.12.45a11.58,11.58,0,0,1,2,.7,12.22,12.22,0,0,1,1.86,1.06c.59.42,1.18.8,1.77,1.15v.35l1.06.54v.35l1.06.53L29.18,23a13.12,13.12,0,0,1,1.76,2.65,16.55,16.55,0,0,1,1.15,2.92,25.72,25.72,0,0,1,.71,3.09,12.47,12.47,0,0,1,.09,3.36,22.92,22.92,0,0,1-.62,3.44c-.3,1.12-.56,2.27-.8,3.45a11.32,11.32,0,0,1-1.23,3.36,25.74,25.74,0,0,1-1.95,3l-1.23,1.42.53.35v.35l1.06.53,1.06,1.24a17.89,17.89,0,0,1,2.21,4,20.55,20.55,0,0,1,1.15,4.33,42.15,42.15,0,0,1,.44,4.68c.05,1.59.09,3.21.09,4.86a8.44,8.44,0,0,1-.53,1.68c-.24.53-.51,1.06-.8,1.59s-.59,1.06-.88,1.59a12.9,12.9,0,0,1-1,1.5l-.7.71-1.06.53V78a15.33,15.33,0,0,1-3.45,2,28.51,28.51,0,0,1-3.8,1.33,23,23,0,0,1-4,.71C16.07,82.18,14.69,82.36,13.27,82.6ZM23,43.54A9,9,0,0,0,24.58,41a14.57,14.57,0,0,0,.8-2.74l.53-2.92A11.36,11.36,0,0,0,26,32.23c-.12-.35-.24-.74-.36-1.15s-.23-.79-.35-1.15a4.77,4.77,0,0,0-.53-1.06l-.71-1.06-.35-.18a4.05,4.05,0,0,0-1-1,8.31,8.31,0,0,1-1.15-1,3.92,3.92,0,0,0-1.15-.8,7,7,0,0,1-1.15-.61l-2.47-.53v20.5l-.18,1.23H17A6.93,6.93,0,0,1,18.49,45l1.59-.35a6.36,6.36,0,0,0,1.5-.53A7.36,7.36,0,0,1,23,43.54Z" class="cls-2"/><path d="M19.84,32.39s-.71-2.26,0-3A10.38,10.38,0,0,1,22,27.86s.71,2.27,0,3A10.38,10.38,0,0,1,19.84,32.39Z" class="cls-2"/><path d="M103.44,52.1c-.33-.19-8.16-4.73-9.32-11.7-.6-3.62,2.22-6.78,4.71-9.56,1.64-1.83,3.18-3.55,3.06-4.77a1.64,1.64,0,0,0-.77-1.15l.68-.9A2.77,2.77,0,0,1,103,26c.17,1.71-1.45,3.53-3.33,5.63-2.32,2.59-5,5.54-4.44,8.62,1.07,6.44,8.69,10.88,8.77,10.92Z" class="cls-1"/><path d="M100.44,50.25c-1.53-2.14-6-7.69-8.59-7.69H86.19V41.44h5.66c3.57,0,8.91,7.32,9.5,8.15Z" class="cls-1"/><path d="M98.24,46.74s0-2.37.93-2.87a10,10,0,0,1,2.49-.78s0,2.37-.93,2.87A10.16,10.16,0,0,1,98.24,46.74Z" class="cls-2"/><path d="M84.45,83.3l-1.76-.88a5.62,5.62,0,0,1-.8-1.41,4.42,4.42,0,0,1-.26-1.59V76.06q.53-6.9.7-13.88t.8-14q.62-7.07,1.06-14A95.56,95.56,0,0,1,86,20.56a6.85,6.85,0,0,1,2.21-1,11.89,11.89,0,0,1,2.57-.26h5.3l3.62.7a26.11,26.11,0,0,1,3.62,1,9.59,9.59,0,0,1,3.18,1.85c.95.83,1.89,1.71,2.83,2.65a15.33,15.33,0,0,1,2,3.45,17.11,17.11,0,0,1,1.15,3.89c.24,1.35.41,2.74.53,4.15a27.17,27.17,0,0,1,0,4.42,13.74,13.74,0,0,1-.35,3.09c-.24,1-.5,2-.8,3.09a9.8,9.8,0,0,1-1.32,2.92,12,12,0,0,1-2.12,2.39l-2.83,2.65c1.18,1.88,2.27,3.83,3.27,5.83a48.71,48.71,0,0,1,2.56,6.1c.71,2.06,1.47,4.12,2.3,6.18a24.57,24.57,0,0,1,1.59,6.45l-.88,1.77a4.88,4.88,0,0,0-.71.44,1.94,1.94,0,0,1-.8.36,4.8,4.8,0,0,1-.79.08h-.88l-1.77-.88q-1.41-3-2.48-6c-.7-2-1.44-4-2.2-6.1s-1.63-4.06-2.57-6A60.24,60.24,0,0,0,99.12,58l-.53-.17L89.22,59.8c0,1.89,0,3.8-.08,5.74s-.15,3.86-.27,5.75-.18,3.8-.18,5.74a13.5,13.5,0,0,1-1.06,5.39,5.39,5.39,0,0,0-.7.44,1.94,1.94,0,0,1-.8.36,4.8,4.8,0,0,1-.79.08Zm17.68-34.1a6.76,6.76,0,0,0,1-.8l.88-.88a10.7,10.7,0,0,0,.8-.89,3.27,3.27,0,0,0,.53-1,14.25,14.25,0,0,0,.53-2.21c.11-.76.2-1.53.26-2.3s.09-1.53.09-2.29V36.47a15.2,15.2,0,0,1-.26-1.94,5.42,5.42,0,0,0-.53-2c-.3-.59-.57-1.17-.8-1.76a4,4,0,0,0-1.24-1.6,7.69,7.69,0,0,0-2.56-1.76A19.52,19.52,0,0,0,98,26.57a14.15,14.15,0,0,0-3.18-.35H91.52q0,3.36-.26,6.63t-.62,6.54c-.24,2.18-.41,4.39-.53,6.62l-.36,6.72h.71c.94-.23,2-.47,3-.71s2.06-.47,3-.7a25.65,25.65,0,0,0,2.83-.89A29.94,29.94,0,0,0,102.13,49.2Z" class="cls-2"/><path d="M97.48,32.68s-2.36.21-3-.65a10.15,10.15,0,0,1-1-2.4s2.36-.21,2.94.64A10.07,10.07,0,0,1,97.48,32.68Z" class="cls-2"/><path d="M216.43,40.5s1.32-2,2.35-1.9a10.25,10.25,0,0,1,2.51.71s-1.31,2-2.34,1.9A10.23,10.23,0,0,1,216.43,40.5Z" class="cls-2"/><path d="M213.42,42.53s-.73-.34-.23-1.45,2.66-1.89,2.66-1.89a25.69,25.69,0,0,1-.45,2.91A1.22,1.22,0,0,1,213.42,42.53Z" class="cls-3"/><path d="M216.48,35.83s.81,0,.81,1.21-1.62,2.83-1.62,2.83a26,26,0,0,1-.81-2.83C214.86,35.42,216.48,35.83,216.48,35.83Z" class="cls-3"/><path d="M212.18,38.52s0-.81,1.19-.83,2.87,1.56,2.87,1.56a24,24,0,0,1-2.82.86C211.8,40.15,212.18,38.52,212.18,38.52Z" class="cls-3"/><path d="M217.24,42.85s-.7.4-1.3-.66,0-3.26,0-3.26A26.13,26.13,0,0,1,218.05,41C218.85,42.4,217.24,42.85,217.24,42.85Z" class="cls-3"/><path d="M219.44,39.05s.26.77-.89,1.15-3.2-.65-3.2-.65a25.71,25.71,0,0,1,2.44-1.66C219.32,37.38,219.44,39.05,219.44,39.05Z" class="cls-3"/><circle cx="215.84" cy="39.64" r=".81" class="cls-4"/><path d="M43.35,82.67l-1.83-.92a4.88,4.88,0,0,0-.55-.82,2.21,2.21,0,0,1-.46-.92l-.18-.92a5.16,5.16,0,0,1-.09-1q1.65-7.7,3.48-15.21t3.94-15.21c1.4-5.14,2.72-10.23,3.94-15.31a101.91,101.91,0,0,1,4.76-14.75,4.26,4.26,0,0,0,.74-.46,2,2,0,0,1,.82-.36,4.36,4.36,0,0,1,.83-.09h.91a2.1,2.1,0,0,0,.92.18,5.27,5.27,0,0,1,1,.09,1.91,1.91,0,0,1,.82.37,5.87,5.87,0,0,0,.73.46q1.11,7.69,2.66,15.39t2.93,15.48q1.38,7.8,2.94,15.49t3.39,15.21l-.92,1.83a5.22,5.22,0,0,0-.73.46,4.13,4.13,0,0,1-.83.46,2.46,2.46,0,0,1-.91.18h-1l-1.83-.91a14.21,14.21,0,0,1-1.93-5.23c-.31-1.89-.67-3.78-1.1-5.68s-.86-3.76-1.28-5.59-.83-3.66-1.19-5.5L54.16,59l-.91.18L52.15,59c-.49,1.83-1,3.7-1.47,5.59s-1,3.79-1.46,5.68A58.41,58.41,0,0,0,48,76.07a35.4,35.4,0,0,1-1.38,5.68,4.89,4.89,0,0,0-.73.46,2.23,2.23,0,0,1-.83.37,4.27,4.27,0,0,1-.82.09Z" class="cls-2"/><path d="M53.91,48s-1.51-.7-.47-3,5.47-3.9,5.47-3.9a53.07,53.07,0,0,1-.93,6C56.59,50.16,53.91,48,53.91,48Z" class="cls-3"/><path d="M60.22,34.21s1.66,0,1.66,2.5-3.33,5.83-3.33,5.83a53.16,53.16,0,0,1-1.67-5.83C56.88,33.38,60.22,34.21,60.22,34.21Z" class="cls-3"/><path d="M51.35,39.76s0-1.66,2.46-1.71,5.9,3.21,5.9,3.21A51.33,51.33,0,0,1,53.91,43C50.58,43.11,51.35,39.76,51.35,39.76Z" class="cls-3"/><path d="M61.78,48.67s-1.45.82-2.68-1.35,0-6.72,0-6.72a52.43,52.43,0,0,1,4.32,4.26C65.09,47.76,61.78,48.67,61.78,48.67Z" class="cls-3"/><path d="M66.32,40.85s.52,1.58-1.85,2.36-6.58-1.34-6.58-1.34a54.81,54.81,0,0,1,5-3.41C66.07,37.42,66.32,40.85,66.32,40.85Z" class="cls-3"/><circle cx="58.89" cy="42.07" r="1.67" class="cls-4"/><path d="M267.77,81.09l-1-.52a2.47,2.47,0,0,0-.27-.42,1.3,1.3,0,0,1-.21-.48,3.05,3.05,0,0,1-.05-.52v-.58l.53-1,.73-.74L270,74.36a8.27,8.27,0,0,1,.31-1.26,4.37,4.37,0,0,0,.21-1.37V68.89a1.67,1.67,0,0,1-.26-.64,1.14,1.14,0,0,0-.26-.57,5.66,5.66,0,0,1-.37-.53,1.5,1.5,0,0,0-.47-.47,12.38,12.38,0,0,0-2.48-1.21,8.8,8.8,0,0,0-2.79-.53c-1,0-2,0-3,0h-3a18,18,0,0,0-2.32.15c-.77.11-1.53.25-2.26.43s-1.48.33-2.21.47-1.49.25-2.26.32l-1.06-.53a3.19,3.19,0,0,0-.26-.42,1,1,0,0,1-.21-.48,2,2,0,0,1-.05-.47v-.53l.52-1a17.52,17.52,0,0,1,3.74-1.26,36.78,36.78,0,0,1,7.94-.84h4.21c.78.07,1.56.17,2.37.31a14.62,14.62,0,0,1,2.26.58,10.29,10.29,0,0,1,2.06,1,14.46,14.46,0,0,1,1.94,1.48,16.17,16.17,0,0,1,1.32,1.73,5.72,5.72,0,0,1,.79,2,11,11,0,0,1,.21,2.16v2.26c-.14.63-.26,1.26-.37,1.89a15.4,15.4,0,0,1-.42,1.84,3.47,3.47,0,0,1-1,1.58c-.49.46-1,.93-1.47,1.42L270.19,80l-.53.53a3.19,3.19,0,0,0-.42.26,1.05,1.05,0,0,1-.47.21,2.17,2.17,0,0,1-.48,0Z" class="cls-1"/><path d="M305.84,81.09c-.7-.14-1.39-.29-2-.47a12.17,12.17,0,0,1-2-.68q-.94-.42-1.95-.9a10.54,10.54,0,0,1-1.84-1.1,12.25,12.25,0,0,1-1.58-2.48,19.08,19.08,0,0,1-1.05-2.68,9.81,9.81,0,0,1-.42-2.89V66.78c.28-1.19.61-2.37,1-3.52a19.37,19.37,0,0,1,1.47-3.32,34.67,34.67,0,0,1,2-3.1,23.34,23.34,0,0,1,2.48-2.9l.84-.84.73-.74-3.78-.31h-12l-.53.1-2.73-.1-1.06.1-1.05-.52a3.19,3.19,0,0,0-.26-.42,1,1,0,0,1-.21-.48,2,2,0,0,1,0-.47v-.53l.52-1a3.12,3.12,0,0,1,1.11-.58,4.78,4.78,0,0,1,1.21-.16h2.63l.31.11.11-.11h12q1.58.21,3.15.27c1.06,0,2.09.1,3.11.21a22.78,22.78,0,0,0,3.1.1,5.79,5.79,0,0,1,2.95.69,3.19,3.19,0,0,0,.26.42,1.05,1.05,0,0,1,.21.47,2.16,2.16,0,0,1,.06.47v.53l-.53,1c-.49.28-1,.56-1.42.84a10.09,10.09,0,0,1-1.42.74,15.7,15.7,0,0,0-1.48.74,6.43,6.43,0,0,0-1.36,1.05l-.11.21a14.3,14.3,0,0,0-1.79,1.42,8.66,8.66,0,0,0-1.42,1.74c-.38.63-.79,1.26-1.21,1.89a10.9,10.9,0,0,0-1,2c-.21.63-.46,1.27-.74,1.9s-.52,1.26-.73,1.89a5,5,0,0,0-.22,2.11,11.65,11.65,0,0,1,0,2.21l.43,1a8.32,8.32,0,0,0,.47,1,9.22,9.22,0,0,1,.47,1,4.09,4.09,0,0,0,.53.94,13.69,13.69,0,0,0,1.58.79q.84.38,1.68.69a14,14,0,0,0,1.74.52,5.38,5.38,0,0,0,1.84.11l2-.11,1.05.53a3.19,3.19,0,0,0,.26.42,1.17,1.17,0,0,1,.22.48,2.79,2.79,0,0,1,.05.47v.53l-.53,1a2.49,2.49,0,0,1-1.16.52c-.42.07-.84.13-1.26.16s-.86,0-1.31,0Z" class="cls-1"/><path d="M331.19,72.36l-.37-.16-.37-.1a1.38,1.38,0,0,1-.37-.16,3,3,0,0,0-.37-.21,2.37,2.37,0,0,1-.42-.84,7.62,7.62,0,0,1-.16-.9,4.17,4.17,0,0,0-.21-.95,2,2,0,0,1-.05-1,12.14,12.14,0,0,0,.47-1.84,9.56,9.56,0,0,1,.53-1.79,7,7,0,0,1,.95-1.63,17.23,17.23,0,0,1,1.42-1.58c.42-.35.86-.68,1.31-1s.92-.65,1.37-1A6.3,6.3,0,0,0,336.13,58c.35-.45.67-.89.95-1.31l.21-.84a3.48,3.48,0,0,0,.11-.85V53.21a8.32,8.32,0,0,1-.37-1.16,9.91,9.91,0,0,0-.37-1.16,5,5,0,0,0-.58-1,4.7,4.7,0,0,0-.89-1,6.75,6.75,0,0,0-1.37-1,4.93,4.93,0,0,0-1.58-.58,9.31,9.31,0,0,0-1.79-.16h-1.79c-.35.14-.72.26-1.1.37a3.76,3.76,0,0,0-1.06.47,8.16,8.16,0,0,1-1,.58,3.74,3.74,0,0,0-.94.69c-.21.28-.42.58-.64.89a4.19,4.19,0,0,0-.47.95,9.1,9.1,0,0,0-.26,1,1.83,1.83,0,0,1-.53.94,3.3,3.3,0,0,0-.42.27,1.33,1.33,0,0,1-.47.21,3,3,0,0,1-.48.05h-.52l-1-.53a2.94,2.94,0,0,0-.27-.42,1.26,1.26,0,0,1-.21-.47,3.07,3.07,0,0,1-.05-.53V51c.14-.43.26-.86.37-1.32a3.39,3.39,0,0,1,.52-1.21l.79-1.11c.28-.38.56-.75.84-1.1a14,14,0,0,1,2.21-1.63,12,12,0,0,1,2.48-1.11,10,10,0,0,1,2.73-.47c.95,0,1.92,0,2.9,0a6.82,6.82,0,0,0,1.37.26,3.68,3.68,0,0,1,1.21.32l1.1.52a6.31,6.31,0,0,1,1.05.69c.35.35.72.68,1.11,1a9,9,0,0,1,1.1,1.05,6.78,6.78,0,0,1,.9,1.21c.24.42.47.84.68,1.26s.28,1,.42,1.53.27,1,.37,1.52a7.3,7.3,0,0,1,.16,1.58v1.69c-.07.35-.14.72-.21,1.1a11.3,11.3,0,0,1-.26,1.11,7.66,7.66,0,0,1-.42,1,7.27,7.27,0,0,1-.58,1l-.74.84h-.21l-.32.63a9.06,9.06,0,0,1-1.31,1.26c-.46.35-.93.69-1.42,1a7.06,7.06,0,0,0-1.32,1.11,7.81,7.81,0,0,0-1,1.36l-.52,2.85.21,1.79-.53,1-.37.21a2,2,0,0,1-.42.21,1.24,1.24,0,0,1-.47.1A.94.94,0,0,0,331.19,72.36Zm0,10.94a1.69,1.69,0,0,0-.48-.15,3.45,3.45,0,0,1-.52-.16,4.32,4.32,0,0,1-.53-.26,4.94,4.94,0,0,0-.47-.27c-.14-.21-.27-.4-.37-.58a1.39,1.39,0,0,1-.21-.58c0-.21-.09-.43-.16-.68a2.53,2.53,0,0,1-.11-.68,3.21,3.21,0,0,0,.16-.58,3.56,3.56,0,0,1,.16-.53,4.2,4.2,0,0,1,.26-.52q.16-.27.27-.48a2.14,2.14,0,0,1,.68-.47,2.06,2.06,0,0,1,.84-.16h2l1.26.63a2.26,2.26,0,0,1,.48.69,3.15,3.15,0,0,1,.21.79,8.22,8.22,0,0,1,.05.89v.89l-.74,1.37h-.21v.21a3.12,3.12,0,0,1-.58.32,2.86,2.86,0,0,1-.58.16l-.68.1A4.19,4.19,0,0,1,331.19,83.3Z" class="cls-1"/></svg>