<svg xmlns="http://www.w3.org/2000/svg" id="レイヤー_1" data-name="レイヤー 1" viewBox="0 0 1440 200"><defs><style>.cls-1{fill:#597b60}.cls-2{fill:#ff847a}.cls-3{fill:#ffc636}</style></defs><title>footer</title><polygon points="719.45 33.49 719.29 69.22 723.26 68.79 719.45 33.49" class="cls-1"/><rect width="1440" height="140" y="60" class="cls-1"/><path d="M898,45a72,72,0,0,1,9,23,73.39,73.39,0,0,1-2.2,37H936a110,110,0,0,0-38-60Z" class="cls-1"/><path d="M941,35.48A104.15,104.15,0,0,0,900,68a101.24,101.24,0,0,0-14,26h31.2A47,47,0,0,1,915,76C916.86,51.88,937.54,37.77,941,35.48Z" class="cls-1"/><path d="M326,35.48A104.15,104.15,0,0,0,285,68a101.24,101.24,0,0,0-14,26h31.2A47,47,0,0,1,300,76C301.86,51.88,322.54,37.77,326,35.48Z" class="cls-1"/><path d="M1370,45a72,72,0,0,1,9,23,73.39,73.39,0,0,1-2.2,37H1408a110,110,0,0,0-38-60Z" class="cls-1"/><path d="M1413,35.48A104.15,104.15,0,0,0,1372,68a101.24,101.24,0,0,0-14,26h31.2A47,47,0,0,1,1387,76C1388.86,51.88,1409.54,37.77,1413,35.48Z" class="cls-1"/><path d="M537,35a72,72,0,0,1,9,23,73.39,73.39,0,0,1-2.2,37H575a110,110,0,0,0-38-60Z" class="cls-1"/><path d="M72,35a72,72,0,0,1,9,23,73.39,73.39,0,0,1-2.2,37H110A111,111,0,0,0,92,56,110.17,110.17,0,0,0,72,35Z" class="cls-1"/><path d="M859,20.48A104.15,104.15,0,0,0,818,53a101.24,101.24,0,0,0-14,26h31.2A47,47,0,0,1,833,61C834.86,36.88,855.54,22.77,859,20.48Z" class="cls-1"/><path d="M1086,35a72,72,0,0,1,9,23,73.39,73.39,0,0,1-2.2,37H1124a110,110,0,0,0-38-60Z" class="cls-1"/><path d="M1301,20.48A104.15,104.15,0,0,0,1260,53a101.24,101.24,0,0,0-14,26h31.2A47,47,0,0,1,1275,61C1276.86,36.88,1297.54,22.77,1301,20.48Z" class="cls-1"/><path d="M167,20.48A104.15,104.15,0,0,0,126,53a101.24,101.24,0,0,0-14,26h31.2A47,47,0,0,1,141,61C142.86,36.88,163.54,22.77,167,20.48Z" class="cls-1"/><path d="M709.67,45.68s-3.19-1.47-1-6.25,11.51-8.2,11.51-8.2-1.23,11-2,12.61C715.3,50.21,709.67,45.68,709.67,45.68Z" class="cls-2"/><path d="M722.94,16.64s3.51,0,3.51,5.26-7,12.27-7,12.27-3.5-10.52-3.5-12.27C715.93,14.89,722.94,16.64,722.94,16.64Z" class="cls-2"/><path d="M704.27,28.32s-.07-3.5,5.19-3.61,12.41,6.76,12.41,6.76-10.44,3.72-12.2,3.76C702.66,35.37,704.27,28.32,704.27,28.32Z" class="cls-2"/><path d="M726.24,47.08s-3.06,1.72-5.64-2.86.06-14.13.06-14.13,8.23,7.43,9.09,9C733.21,45.15,726.24,47.08,726.24,47.08Z" class="cls-2"/><path d="M735.78,30.6s1.1,3.33-3.89,5S718,32.76,718,32.76s8.89-6.62,10.55-7.17C735.25,23.39,735.78,30.6,735.78,30.6Z" class="cls-2"/><circle cx="720.15" cy="33.18" r="3.51" class="cls-3"/><path d="M721,61s4.8-9.6,10.56-10.56,13.44,1,13.44,1A32.18,32.18,0,0,0,721,61Z" class="cls-1"/></svg>