<svg id="レイヤー_1" data-name="レイヤー 1" xmlns="http://www.w3.org/2000/svg" viewBox="0 0 50 20"><defs><style>.cls-1{fill:#ffc636;}.cls-2{fill:#fff;}</style></defs><title>get</title><rect class="cls-1" width="50" height="20" rx="6.83"/><path class="cls-2" d="M10.82,14.54l-.55-.13a2.62,2.62,0,0,1-.48-.23,4.4,4.4,0,0,1-.45-.3,3.86,3.86,0,0,1-.44-.38,1.72,1.72,0,0,1-.36-.5,2.88,2.88,0,0,1-.2-.56c-.05-.2-.08-.4-.11-.6s0-.41-.05-.63H7.47l-.44,0-.14,0-.1,0-.08,0-.08,0-.08,0-.09-.05a.41.41,0,0,0,0-.09.22.22,0,0,1,0-.11.34.34,0,0,1,0-.1v-.12l.11-.23.15-.08a.33.33,0,0,1,.15-.05h.31l.24,0,.2,0h.64V9.21a4.36,4.36,0,0,1,0-.51c0-.17,0-.34,0-.52h-1L7,8.21l-.23-.12L6.69,8a.27.27,0,0,1-.05-.11.38.38,0,0,1,0-.1V7.67l.12-.24a.5.5,0,0,1,.32-.15H8.25c0-.17.05-.34.07-.5a4.46,4.46,0,0,1,.07-.51,4.43,4.43,0,0,0,.06-.51.78.78,0,0,1,.15-.47l.09-.06.11,0H9l.23.12a1,1,0,0,1,.09.13.28.28,0,0,1,0,.13v.3a2.38,2.38,0,0,1-.06.37l-.07.38a2.38,2.38,0,0,0,0,.39,1.58,1.58,0,0,1-.05.38,4,4,0,0,0,.48.07l.49.05.49,0a.94.94,0,0,1,.46.16l.06.1a.31.31,0,0,1,0,.1.41.41,0,0,1,0,.11v.11l-.12.24-.1.06a.28.28,0,0,1-.12,0h-.25l-.38-.05a1.58,1.58,0,0,0-.38,0,1.11,1.11,0,0,1-.37,0,1.5,1.5,0,0,0-.37,0l0,2.06h1.61a.77.77,0,0,1,.5.13.41.41,0,0,0,.05.09.22.22,0,0,1,0,.11.41.41,0,0,1,0,.11v.13l-.11.24a.86.86,0,0,1-.48.13l-.54,0H9.11v.43l.05.28.06.27a1.25,1.25,0,0,0,.09.25,2,2,0,0,0,.13.25l.05,0a.65.65,0,0,0,.19.24l.23.17.25.17.24.15.25.07.24.06h.52l.32-.09.29-.1a.91.91,0,0,0,.27-.15,2.69,2.69,0,0,1,.27-.2,1.1,1.1,0,0,0,.22-.31,1.25,1.25,0,0,0,.11-.39l0-.41a.66.66,0,0,1,.13-.36l.09-.06a.27.27,0,0,1,.11-.05h.25l.23.12.06.09a.47.47,0,0,1,.05.1s0,.08,0,.11V12c0,.15,0,.31-.07.45s-.06.3-.08.45a1.07,1.07,0,0,1-.18.41l-.28.37-.17.15-.18.09V14a1.72,1.72,0,0,1-.46.25,4.24,4.24,0,0,1-.5.18,2,2,0,0,1-.54.09Z"/><path class="cls-2" d="M22,14.84l-.24-.12a.22.22,0,0,0-.05-.08.1.1,0,0,1,0-.09.36.36,0,0,0,0-.11.16.16,0,0,1,0-.09.87.87,0,0,1,.23-.42,1.37,1.37,0,0,0,.25-.41,1.52,1.52,0,0,0,.1-.47c0-.17,0-.34,0-.51s0-.13-.06-.2a.36.36,0,0,0-.12-.18L21.92,12a.57.57,0,0,0-.15-.16,2.59,2.59,0,0,0-.33-.17,1,1,0,0,0-.36-.07h-.81a1.92,1.92,0,0,0-.46.11,3.19,3.19,0,0,1-.44.13,1.66,1.66,0,0,0-.43.14,1.74,1.74,0,0,0-.4.23l-.19.17-.28,0-.24-.12-.08-.15a.52.52,0,0,1,0-.18v-.37c0-.3.05-.6.07-.89s0-.6,0-.92,0-.61,0-.91A2.58,2.58,0,0,1,18,8l.1-.06a.19.19,0,0,1,.1-.05h.22l.24.12.08.12a.33.33,0,0,1,0,.15v.31a3.83,3.83,0,0,0-.05.6c0,.21,0,.42,0,.63s0,.42,0,.62,0,.41,0,.61h.11l.6-.18a4.39,4.39,0,0,1,.6-.15,4.5,4.5,0,0,1,.66,0h.68l.29.08a1.4,1.4,0,0,1,.29.09.92.92,0,0,1,.27.16l.27.18.07.07.19.21.12.22h0A.75.75,0,0,1,23,12a3.38,3.38,0,0,1,.08.34,2.19,2.19,0,0,1,0,.36v.38c0,.14,0,.28-.08.43a2.58,2.58,0,0,1-.1.42,1.41,1.41,0,0,1-.21.38,1.88,1.88,0,0,0-.24.36h-.05l0,.07a.23.23,0,0,1-.1.07l-.09,0H22ZM21,7.76l-.56-.31c-.19-.12-.37-.24-.54-.37a5.8,5.8,0,0,0-.52-.34l-.56-.31a.31.31,0,0,0-.05-.1.19.19,0,0,1,0-.1.45.45,0,0,1,0-.11V6l.11-.23.1-.06.1,0h.25l.55.28a4.32,4.32,0,0,1,.53.34,3.46,3.46,0,0,0,.53.35l.52.34.06.1a.33.33,0,0,1,.06.1.25.25,0,0,1,0,.12v.13l-.11.23-.1.06a.19.19,0,0,1-.1,0H21Z"/><path class="cls-2" d="M31.26,14.21,31,14.09,31,14a.27.27,0,0,1,0-.11.49.49,0,0,1,0-.12v-.13l.12-.23.16-.16.56-.54a2.29,2.29,0,0,1,.07-.28,1.06,1.06,0,0,0,.05-.31v-.63a.53.53,0,0,1-.06-.14.31.31,0,0,0-.06-.13.83.83,0,0,1-.08-.12.27.27,0,0,0-.11-.1,2.56,2.56,0,0,0-.55-.27,2.07,2.07,0,0,0-.62-.12H29.06a4.41,4.41,0,0,0-.52,0l-.5.1-.5.1a4,4,0,0,1-.5.07l-.23-.11-.06-.1a.24.24,0,0,1-.05-.1.45.45,0,0,1,0-.11v-.12l.12-.23a3.38,3.38,0,0,1,.83-.28,8.74,8.74,0,0,1,.87-.14,8.57,8.57,0,0,1,.9-.05h.94l.52.07a2.72,2.72,0,0,1,.51.13,2.08,2.08,0,0,1,.45.22,4.59,4.59,0,0,1,.44.33,3.58,3.58,0,0,1,.29.39,1.09,1.09,0,0,1,.18.43,2.59,2.59,0,0,1,0,.48v.5c0,.15-.06.29-.08.43a3,3,0,0,1-.09.41.79.79,0,0,1-.23.35l-.32.31L31.8,14l-.12.12-.09.06-.11,0h-.22Z"/><path class="cls-2" d="M37.18,14.54,37,14.42l-.08-.14a.43.43,0,0,1,0-.16.91.91,0,0,1,0-.17v-.19c0-.48.07-1,.1-1.44s.07-1,.07-1.44l0-1.45c0-.49,0-1,.08-1.46h-.3l-.92,0-.08,0-.08,0-.09,0-.08,0a.21.21,0,0,0-.06-.1.3.3,0,0,1,0-.1.45.45,0,0,1,0-.11V7.43l.11-.23a.64.64,0,0,1,.38-.12h1.24c0-.14,0-.28,0-.42l.06-.41a2.87,2.87,0,0,0,0-.41.67.67,0,0,1,.15-.38l.1-.06a.18.18,0,0,1,.1,0l.11,0h.11l.24.12a.37.37,0,0,0,.06.1.18.18,0,0,1,0,.1.49.49,0,0,1,0,.12v.13l0,.28-.05.28a2.66,2.66,0,0,0,0,.28,2.85,2.85,0,0,0,0,.31,1.75,1.75,0,0,0,.4,0h1.27l1.52,0,.24.11a.93.93,0,0,0,0,.1.19.19,0,0,1,.05.1.49.49,0,0,1,0,.12V7.6l-.11.23a1.92,1.92,0,0,1-.75.14H40l-.8,0h-.79L38,8a12.45,12.45,0,0,0-.08,1.63c0,.55,0,1.1,0,1.64s-.06,1.08-.1,1.62a13.64,13.64,0,0,1-.19,1.58.21.21,0,0,0-.1.06.18.18,0,0,1-.1,0l-.11,0Zm4.25-.36L41,14.11a1.84,1.84,0,0,1-.42-.08,2.71,2.71,0,0,0-.41-.09,1.49,1.49,0,0,1-.4-.15.23.23,0,0,0-.07-.1.27.27,0,0,1-.06-.1.45.45,0,0,1,0-.11v-.12l.14-.23.11-.06L40,13h.28l.52.14a4.8,4.8,0,0,0,.57.11,3.75,3.75,0,0,0,.58,0h.6l.19,0,.17,0h.39l.24.12a.41.41,0,0,0,.05.09.22.22,0,0,1,0,.11.34.34,0,0,1,0,.1v.12l-.11.23a1.52,1.52,0,0,1-.5.15,4.35,4.35,0,0,1-.52.06,4.87,4.87,0,0,1-.54,0ZM43,10.55l-.54-.21a3,3,0,0,0-.59-.13c-.2,0-.41,0-.62,0h-.62l-.42.07L40,10.13a.41.41,0,0,0-.06-.11.49.49,0,0,1,0-.11.45.45,0,0,1,0-.11V9.68L40,9.45a1,1,0,0,1,.37-.16,1.42,1.42,0,0,1,.42,0h.88l.47.07a3.11,3.11,0,0,1,.44.07,2.25,2.25,0,0,1,.42.13,1.56,1.56,0,0,1,.4.22l.06.09a.43.43,0,0,1,0,.12c0,.05,0,.09,0,.12v.12l-.12.23-.08.06-.09,0h-.11Z"/></svg>