<svg xmlns="http://www.w3.org/2000/svg" id="レイヤー_1" data-name="レイヤー 1" viewBox="0 0 300 100"><defs><style>.cls-1,.cls-2{fill:none;stroke:#4d4d4d;stroke-miterlimit:10}.cls-1{stroke-linecap:round}.cls-3{fill:#597b60}.cls-4{fill:#ff847a}.cls-5{fill:#ffc636}</style></defs><title>BARTERlogo</title><path d="M266.21,47s5.13-5.13,9.52-5.13,7.32,2.93,10.25,1.47" class="cls-1"/><path d="M266.21,17.67s11.61,7.11,11.21,11.72c-.5,5.86-9.75,10.25-11.21,16.11s2.93,13.18,2.93,13.18" class="cls-2"/><path d="M170.26,89.83,168,88.69a15.63,15.63,0,0,1-1.6-7.1V73.81q0-3.89-.34-7.55t-.34-7.55q.23-4.58.22-9.27t.35-9.27q.35-4.58.34-9.15V21.86h-7.32l-6.18.23a7.55,7.55,0,0,0-.8-.34c-.23-.08-.5-.15-.8-.23a2.54,2.54,0,0,1-.8-.34,6,6,0,0,0-.81-.46,5.75,5.75,0,0,0-.57-.92,2.34,2.34,0,0,1-.45-1,5,5,0,0,1-.12-1V16.6l1.14-2.29A9.2,9.2,0,0,1,155,13.05q2.86.12,5.61,0c1.83-.07,3.7-.11,5.61-.11h5.6a30,30,0,0,0,5.27.46,38.75,38.75,0,0,1,5.26.34c1.68.23,3.39.46,5.15.68a11,11,0,0,1,4.69,1.72,5.75,5.75,0,0,0,.57.92,2.53,2.53,0,0,1,.46,1,5,5,0,0,1,.12,1v1.14l-1.15,2.29c-.3.15-.65.34-1,.57a3.64,3.64,0,0,1-1.14.46,6.22,6.22,0,0,1-1.26.11h-1.37a18.05,18.05,0,0,0-2.86-.68l-3-.46a19.91,19.91,0,0,0-3-.23h-3.09q0,5.26-.12,10.3t-.34,10.3c-.16,3.51-.23,7-.23,10.41s-.08,6.83-.23,10.18a44.78,44.78,0,0,1,.57,5.61c.08,1.91.12,3.82.12,5.72s.07,3.82.23,5.72a38,38,0,0,1,0,5.84l-1.15,2.29a5.68,5.68,0,0,0-.91.57,2.59,2.59,0,0,1-1,.46,5.94,5.94,0,0,1-1,.11Z" class="cls-3"/><path d="M227.31,91.52a21,21,0,0,0-4.47-.45H209l-.92.22a6.76,6.76,0,0,0-.8-.34c-.23-.08-.5-.15-.8-.23a2.51,2.51,0,0,1-.8-.34,6.51,6.51,0,0,0-.8-.46,13.05,13.05,0,0,0-1.14-1.83,6.61,6.61,0,0,1-1-1.94,7.19,7.19,0,0,1-.35-2.29V81.45q0-8.92.57-17.73t.81-17.85q.22-9,.57-17.85a77.5,77.5,0,0,1,2.63-17.28,13.89,13.89,0,0,1,1.37-.8,3.26,3.26,0,0,1,1.49-.34h3.32a24.4,24.4,0,0,0,6.75.91q3.54,0,7,.23a42.66,42.66,0,0,1,6.52.92,34.43,34.43,0,0,1,6.29,2.06,6.58,6.58,0,0,0,.58.91,2.44,2.44,0,0,1,.45,1,5.1,5.1,0,0,1,.12,1v1.14l-1.15,2.29c-.3.16-.65.35-1,.58a3.61,3.61,0,0,1-1.14.45,5.52,5.52,0,0,1-1.14.12h-1.26q-2.52-.46-5-1.15a20.7,20.7,0,0,0-5.38-.68c-1.9,0-3.77,0-5.6-.12a36.8,36.8,0,0,1-5.27-.57,65.18,65.18,0,0,1-.34,6.75q-.35,3.32-.46,6.75t-.23,6.87q-.11,3.43-.11,7.09c1.83.16,3.7.38,5.61.69a48.37,48.37,0,0,0,5.83.57c2,.08,4,.11,6,.11a9,9,0,0,1,5.27,1.61,5.68,5.68,0,0,0,.57.91,2.59,2.59,0,0,1,.46,1,6.48,6.48,0,0,1,.11,1.15v1.25l-1.14,2.29a6.12,6.12,0,0,0-.92.58,2.58,2.58,0,0,1-1,.45,5.1,5.1,0,0,1-1,.12H231.2a12.17,12.17,0,0,0-4.69-.46,20.92,20.92,0,0,1-4.81-.11L217,55.71a20.18,20.18,0,0,0-4.81-.12,62,62,0,0,1-.34,6.64,60.94,60.94,0,0,0-.34,6.52V75.5c0,2.29-.08,4.51-.23,6.64h12.58a16.2,16.2,0,0,1,3.89.46,5.86,5.86,0,0,1,2.06-.57,22,22,0,0,1,2.29-.12c.76,0,1.53,0,2.29-.11a22,22,0,0,1,2.29-.12L239,82.83a5.68,5.68,0,0,0,.57.91,2.59,2.59,0,0,1,.46,1,5.94,5.94,0,0,1,.11,1V87L239,89.23a6.56,6.56,0,0,1-2.63,1.26,13.74,13.74,0,0,1-3.09.35,12.25,12.25,0,0,0-3,.34A12.16,12.16,0,0,1,227.31,91.52Z" class="cls-3"/><path d="M255.45,93.13,253.16,92a7.69,7.69,0,0,1-1-1.83,5.82,5.82,0,0,1-.34-2.06V83.74q.69-8.92.92-18t1-18.2q.8-9.15,1.37-18.07a123.94,123.94,0,0,1,2.4-17.63,8.7,8.7,0,0,1,2.86-1.25,14.71,14.71,0,0,1,3.32-.35h6.87c1.52.31,3.09.61,4.69.92a31.5,31.5,0,0,1,4.69,1.26,12.39,12.39,0,0,1,4.12,2.4q1.83,1.61,3.66,3.43a20.43,20.43,0,0,1,2.63,4.46,22.86,22.86,0,0,1,1.49,5q.45,2.64.68,5.38a34.13,34.13,0,0,1,0,5.72,17.64,17.64,0,0,1-.45,4c-.31,1.3-.65,2.64-1,4a13.33,13.33,0,0,1-1.72,3.77,14.66,14.66,0,0,1-2.75,3.09l-3.66,3.44q2.29,3.66,4.24,7.55a65.71,65.71,0,0,1,3.32,7.89c.91,2.68,1.9,5.34,3,8A31.31,31.31,0,0,1,295.5,89l-1.14,2.28a6.12,6.12,0,0,0-.92.58,2.44,2.44,0,0,1-1,.45,5.1,5.1,0,0,1-1,.12h-1.14L288,91.29a84,84,0,0,1-3.21-7.78c-.91-2.59-1.87-5.22-2.86-7.89s-2.1-5.26-3.31-7.78a82.49,82.49,0,0,0-4.12-7.44l-.69-.23-12.13,2.52q0,3.66-.11,7.44t-.35,7.43c-.15,2.45-.23,4.92-.23,7.44a17.46,17.46,0,0,1-1.37,7,5.27,5.27,0,0,0-.91.57,2.59,2.59,0,0,1-1,.46,5.18,5.18,0,0,1-1,.12ZM278.34,49a9.6,9.6,0,0,0,1.26-1l1.14-1.15a15.15,15.15,0,0,0,1-1.14,4.3,4.3,0,0,0,.69-1.26,17.55,17.55,0,0,0,.68-2.86c.15-1,.27-2,.35-3s.11-2,.11-3V32.48a21.39,21.39,0,0,1-.34-2.52,6.92,6.92,0,0,0-.69-2.51c-.38-.77-.73-1.53-1-2.29a5.14,5.14,0,0,0-1.6-2.06,10.08,10.08,0,0,0-3.32-2.29A24.85,24.85,0,0,0,273,19.67a17.69,17.69,0,0,0-4.12-.46h-4.23q0,4.35-.35,8.58c-.23,2.82-.5,5.65-.8,8.47s-.53,5.68-.69,8.58l-.45,8.69h.91c1.22-.3,2.52-.6,3.89-.91s2.67-.61,3.89-.92a32.09,32.09,0,0,0,3.66-1.14A38.88,38.88,0,0,0,278.34,49Z" class="cls-3"/><path d="M13.56,38.91a10.41,10.41,0,0,0,8.79-5.86c2.93-5.86,2.93-16.11,4.39-16.11" class="cls-2"/><path d="M23.08,32.32s-2.93,0-4.39-4.39-2.93-8.79-4.4-8.79" class="cls-2"/><path d="M14.29,39.64s6.6-2.19,8.06-2.19,4.39,1.46,4.39,1.46" class="cls-2"/><path d="M10.68,92.21,8.39,91.07l-.46-.69-2.06-.92a5.68,5.68,0,0,0-.57-.91,2.53,2.53,0,0,1-.46-1c-.07-.38-.15-.76-.23-1.15a6.92,6.92,0,0,1-.11-1.25,81,81,0,0,0,.69-10.53V64a95.58,95.58,0,0,1,.57-10.53,98.77,98.77,0,0,0,.57-10.87V12.8a5.42,5.42,0,0,0,.34-.8,8,8,0,0,0,.23-.8,2.43,2.43,0,0,1,.35-.8,8.17,8.17,0,0,0,.45-.8,20.81,20.81,0,0,0,2.18-1,11,11,0,0,1,2.17-.92,12.29,12.29,0,0,1,2.4-.46c.84-.07,1.72-.11,2.64-.11.91.15,1.83.34,2.74.57a15.43,15.43,0,0,1,5,2.29c.76.53,1.52,1,2.29,1.49v.45l1.37.69V13l1.37.69,1.38,1.37a17,17,0,0,1,2.28,3.43,22.66,22.66,0,0,1,1.49,3.78,34.72,34.72,0,0,1,.92,4,16.52,16.52,0,0,1,.11,4.35,28.5,28.5,0,0,1-.8,4.46c-.38,1.45-.73,2.94-1,4.47a15.13,15.13,0,0,1-1.6,4.34,33.67,33.67,0,0,1-2.52,3.89l-1.6,1.83.69.46v.46l1.37.69L32,52.85A22.72,22.72,0,0,1,34.82,58a26.33,26.33,0,0,1,1.49,5.6,55,55,0,0,1,.57,6.07Q37,72.76,37,76a11.09,11.09,0,0,1-.69,2.18c-.31.68-.65,1.37-1,2.06l-1.14,2.06a20.18,20.18,0,0,1-1.26,1.94l-.92.92-1.37.68v.46a19.82,19.82,0,0,1-4.46,2.63,38.26,38.26,0,0,1-4.92,1.72,28.78,28.78,0,0,1-5.15.91C14.3,91.68,12.51,91.9,10.68,92.21ZM23.27,41.63a12,12,0,0,0,2.06-3.31,19,19,0,0,0,1-3.55q.34-1.83.69-3.78a14,14,0,0,0,.12-4c-.16-.46-.31-.95-.46-1.49s-.31-1-.46-1.49a5.68,5.68,0,0,0-.69-1.37l-.91-1.37L24.18,21a5,5,0,0,0-1.26-1.26,12,12,0,0,1-1.49-1.26,4.66,4.66,0,0,0-1.48-1,8.82,8.82,0,0,1-1.49-.8L15.26,16V42.55L15,44.15h.45a8.49,8.49,0,0,1,1.95-.68L19.49,43a8,8,0,0,0,1.94-.69A9.59,9.59,0,0,1,23.27,41.63Z" class="cls-3"/><path d="M19.18,27.19s-.92-2.92,0-3.9a13,13,0,0,1,2.76-1.95s.92,2.93,0,3.9A13,13,0,0,1,19.18,27.19Z" class="cls-3"/><path d="M127.8,52.09s-10.25-5.86-11.71-14.64,14.64-16.11,8.78-20.51" class="cls-2"/><path d="M124.14,49.9s-7.32-10.26-11.72-10.26H105.1" class="cls-2"/><path d="M120.7,45.78s0-3.08,1.2-3.72a13.07,13.07,0,0,1,3.23-1s0,3.07-1.2,3.71A13.28,13.28,0,0,1,120.7,45.78Z" class="cls-3"/><path d="M102.85,93.13,100.56,92a7.36,7.36,0,0,1-1-1.83,5.82,5.82,0,0,1-.34-2.06V83.74q.69-8.92.91-18t1-18.2q.81-9.15,1.38-18.07a123.94,123.94,0,0,1,2.4-17.63,8.7,8.7,0,0,1,2.86-1.25,14.71,14.71,0,0,1,3.32-.35H118c1.52.31,3.08.61,4.69.92a31.5,31.5,0,0,1,4.69,1.26,12.39,12.39,0,0,1,4.12,2.4q1.83,1.61,3.66,3.43a20.43,20.43,0,0,1,2.63,4.46,22.86,22.86,0,0,1,1.49,5q.45,2.64.68,5.38a34.13,34.13,0,0,1,0,5.72,17.64,17.64,0,0,1-.45,4c-.31,1.3-.65,2.64-1,4a13.33,13.33,0,0,1-1.72,3.77A14.66,14.66,0,0,1,134,53.76l-3.66,3.44q2.3,3.66,4.24,7.55a64.06,64.06,0,0,1,3.31,7.89c.92,2.68,1.91,5.34,3,8A31.31,31.31,0,0,1,142.9,89l-1.14,2.28a6.12,6.12,0,0,0-.92.58,2.44,2.44,0,0,1-1,.45,5.1,5.1,0,0,1-1,.12h-1.14l-2.29-1.15a84,84,0,0,1-3.21-7.78c-.91-2.59-1.87-5.22-2.86-7.89s-2.1-5.26-3.32-7.78a80,80,0,0,0-4.11-7.44l-.69-.23L109,62.69q0,3.66-.11,7.44t-.35,7.43c-.15,2.45-.23,4.92-.23,7.44A17.46,17.46,0,0,1,107,92a5.27,5.27,0,0,0-.91.57,2.59,2.59,0,0,1-1,.46,5.18,5.18,0,0,1-1,.12ZM125.74,49a8.89,8.89,0,0,0,1.25-1c.38-.38.77-.76,1.15-1.15a15.15,15.15,0,0,0,1-1.14,4.3,4.3,0,0,0,.69-1.26,17.55,17.55,0,0,0,.68-2.86c.15-1,.27-2,.34-3s.12-2,.12-3V32.48a19.47,19.47,0,0,1-.34-2.52,6.92,6.92,0,0,0-.69-2.51c-.38-.77-.73-1.53-1-2.29a5.14,5.14,0,0,0-1.6-2.06A10.08,10.08,0,0,0,124,20.81a24.85,24.85,0,0,0-3.66-1.14,17.69,17.69,0,0,0-4.12-.46H112q0,4.35-.35,8.58c-.23,2.82-.5,5.65-.8,8.47s-.53,5.68-.69,8.58l-.45,8.69h.91c1.22-.3,2.52-.6,3.89-.91s2.67-.61,3.89-.92a32.09,32.09,0,0,0,3.66-1.14C123.29,50.1,124.51,49.57,125.74,49Z" class="cls-3"/><path d="M119.72,27.57s-3.06.27-3.82-.84a13.4,13.4,0,0,1-1.31-3.11s3.06-.27,3.81.84A13,13,0,0,1,119.72,27.57Z" class="cls-3"/><path d="M273.75,37.69s1.7-2.55,3-2.45a13.13,13.13,0,0,1,3.26.92s-1.7,2.56-3,2.45A13.13,13.13,0,0,1,273.75,37.69Z" class="cls-3"/><path d="M269.85,40.32s-1-.44-.29-1.86S273,36,273,36a32.93,32.93,0,0,1-.58,3.77A1.57,1.57,0,0,1,269.85,40.32Z" class="cls-4"/><path d="M273.81,31.65s1.05,0,1.05,1.57-2.09,3.66-2.09,3.66a33.4,33.4,0,0,1-1-3.66C271.72,31.12,273.81,31.65,273.81,31.65Z" class="cls-4"/><path d="M268.24,35.14s0-1,1.55-1.08,3.71,2,3.71,2a33.68,33.68,0,0,1-3.65,1.12C267.76,37.24,268.24,35.14,268.24,35.14Z" class="cls-4"/><path d="M274.8,40.74s-.91.51-1.69-.85,0-4.23,0-4.23a33.17,33.17,0,0,1,2.72,2.68C276.88,40.16,274.8,40.74,274.8,40.74Z" class="cls-4"/><path d="M277.65,35.82s.33,1-1.16,1.48-4.14-.84-4.14-.84a32.23,32.23,0,0,1,3.15-2.14C277.49,33.66,277.65,35.82,277.65,35.82Z" class="cls-4"/><circle cx="272.98" cy="36.59" r="1.05" class="cls-5"/><path d="M49.63,92.3l-2.37-1.19a6.74,6.74,0,0,0-.71-1.06,2.79,2.79,0,0,1-.6-1.19c-.08-.39-.16-.79-.23-1.19a6.53,6.53,0,0,1-.12-1.3q2.13-10,4.51-19.7T55.21,47q2.73-10,5.1-19.82a131.35,131.35,0,0,1,6.17-19.1,6.65,6.65,0,0,0,1-.59A2.54,2.54,0,0,1,68.5,7a6.25,6.25,0,0,1,1.06-.12h1.19a2.6,2.6,0,0,0,1.19.24,6.61,6.61,0,0,1,1.3.12,2.6,2.6,0,0,1,1.07.48,6.45,6.45,0,0,0,1,.59q1.42,10,3.44,19.93t3.8,20.05q1.77,10.09,3.79,20T90.68,88L89.5,90.4a5.78,5.78,0,0,0-1,.6,5.25,5.25,0,0,1-1.07.59,3.16,3.16,0,0,1-1.19.24H85l-2.38-1.19a18.54,18.54,0,0,1-2.49-6.76c-.39-2.45-.87-4.91-1.42-7.36S77.59,71.66,77,69.28,76,64.54,75.5,62.16l-11.87-.47-1.19.24L61,61.69c-.63,2.37-1.27,4.79-1.9,7.24s-1.26,4.9-1.9,7.35-1.14,5-1.54,7.48a45.83,45.83,0,0,1-1.78,7.35,6.23,6.23,0,0,0-.95.6,2.53,2.53,0,0,1-1.07.47,5.37,5.37,0,0,1-1.06.12Z" class="cls-3"/><path d="M63.3,47.42s-2-.9-.6-3.84,7.08-5,7.08-5-.75,6.78-1.2,7.76C66.77,50.21,63.3,47.42,63.3,47.42Z" class="cls-4"/><path d="M71.47,29.56s2.15,0,2.15,3.23-4.31,7.55-4.31,7.55-2.16-6.47-2.16-7.55C67.15,28.48,71.47,29.56,71.47,29.56Z" class="cls-4"/><path d="M60,36.74s0-2.15,3.19-2.22,7.64,4.16,7.64,4.16S64.38,41,63.31,41C59,41.08,60,36.74,60,36.74Z" class="cls-4"/><path d="M73.5,48.28S71.62,49.34,70,46.53s0-8.7,0-8.7,5.07,4.57,5.6,5.51C77.78,47.1,73.5,48.28,73.5,48.28Z" class="cls-4"/><path d="M79.37,38.15s.68,2.05-2.4,3.06-8.52-1.73-8.52-1.73,5.47-4.08,6.49-4.42C79,33.71,79.37,38.15,79.37,38.15Z" class="cls-4"/><circle cx="69.75" cy="39.74" r="2.16" class="cls-5"/></svg>