<svg id="レイヤー_1" data-name="レイヤー 1" xmlns="http://www.w3.org/2000/svg" viewBox="0 0 50 20"><defs><style>.cls-1{fill:#ff847a;}.cls-2{fill:#fff;}</style></defs><title>send</title><rect class="cls-1" width="50" height="20" rx="6.83"/><path class="cls-2" d="M18.53,15C18,15,17.38,15,16.8,15a14.22,14.22,0,0,1-1.73-.11,5.68,5.68,0,0,1-1.67-.46,10.57,10.57,0,0,0-1.64-.56c0,.08-.07.16-.1.23l-.12.24-.11.23a1,1,0,0,1-.14.24l-.09.06-.11.06-.11,0h-.13l-.24-.12a.24.24,0,0,0-.06-.09.21.21,0,0,1,0-.11.49.49,0,0,1,0-.12v-.12c.1-.24.22-.47.33-.7a7.37,7.37,0,0,0,.34-.69c.11-.23.22-.47.31-.7s.19-.47.3-.7l-.28-.21a.24.24,0,0,0-.07-.12.41.41,0,0,1-.07-.11s0-.08,0-.13a.32.32,0,0,1,0-.14,1.78,1.78,0,0,1,.14-.36l.2-.35.2-.34A3.78,3.78,0,0,0,12,9.44a2.43,2.43,0,0,0-.38,0h-.36l-.37,0a.54.54,0,0,1-.32-.13l-.06-.09a.27.27,0,0,1,0-.11.38.38,0,0,1,0-.1V8.83l.12-.24a.42.42,0,0,1,.16-.09.65.65,0,0,1,.2,0h.41l.46,0,.44,0a3,3,0,0,1,.43,0,.86.86,0,0,1,.4.18l.06.1a.31.31,0,0,1,0,.12.49.49,0,0,1,0,.12v.13l-.87,1.59.19.12.07.07.09.14a1.1,1.1,0,0,1,.09.14.41.41,0,0,1,0,.16v.19a1,1,0,0,1-.15.34,1.74,1.74,0,0,0-.18.33,2.07,2.07,0,0,1-.15.34,1.08,1.08,0,0,0-.1.35,10.47,10.47,0,0,1,1.57.55,5,5,0,0,0,1.63.41c.57,0,1.13.07,1.69.07s1.13,0,1.69.07l.45,0,.23.12.06.1a.31.31,0,0,1,0,.1s0,.08,0,.12v.13l-.12.23a.7.7,0,0,1-.21.11L19,15h-.24ZM12.37,7.56l-.26-.14a.92.92,0,0,0-.24-.28,2.37,2.37,0,0,1-.29-.25,3.48,3.48,0,0,1-.24-.28l-.24-.29,0-.3.12-.24a.24.24,0,0,0,.09-.06.21.21,0,0,1,.11,0l.1,0h.12l.23.12A1.84,1.84,0,0,0,12,6l.19.21a.72.72,0,0,0,.2.19l.22.18.1.14a1.34,1.34,0,0,1,.11.14A.44.44,0,0,1,12.9,7a1.28,1.28,0,0,1,0,.19l-.12.24-.09,0a.22.22,0,0,1-.11,0h-.22Zm2.51,6.05-.24-.12a.16.16,0,0,0-.06-.08.12.12,0,0,1,0-.09.36.36,0,0,0,0-.11.16.16,0,0,1,0-.09c.08-.22.15-.44.21-.67l.19-.68c.06-.23.13-.45.19-.67s.12-.44.19-.68h-.14l-1.22.12-.09,0-.08,0-.08,0-.08,0-.06-.1a.31.31,0,0,1,0-.1s0-.08,0-.12V10l.12-.23a1,1,0,0,1,.46-.13,4.28,4.28,0,0,0,.49-.05,4,4,0,0,1,.49,0l.53,0a1.55,1.55,0,0,1,.08-.36l.12-.34c0-.11.07-.22.11-.34S16,8.21,16,8.1A1.26,1.26,0,0,0,15.46,8H14.37a.87.87,0,0,1-.48-.14.24.24,0,0,0-.06-.09.36.36,0,0,1,0-.11.38.38,0,0,1,0-.1V7.47l.11-.24a.52.52,0,0,1,.26-.1H15V7.05l-.18-.41c-.05-.14-.1-.28-.14-.43s-.08-.29-.13-.43a1.62,1.62,0,0,1-.07-.44l.12-.24A.24.24,0,0,0,14.71,5a.25.25,0,0,1,.11,0l.1,0H15l.24.12a1.17,1.17,0,0,1,.23.51,3.07,3.07,0,0,0,.14.52,5.49,5.49,0,0,0,.21.51,1.34,1.34,0,0,1,.14.52h.44a.76.76,0,0,1,.21,0l.2,0a1.61,1.61,0,0,1,.08-.54l.16-.51c.06-.18.11-.35.16-.52a1.51,1.51,0,0,1,.21-.49l.09-.06.11,0h.22l.23.12.06.09a.37.37,0,0,1,0,.11.45.45,0,0,1,0,.11v.13l-.49,1.67.3,0,.29,0a3,3,0,0,1,.31,0,.66.66,0,0,1,.27.12.24.24,0,0,0,.06.09.21.21,0,0,1,0,.11.44.44,0,0,1,0,.1v.12l-.12.23-.11.06a.29.29,0,0,1-.13.05l-.12,0-.13,0-.34-.06a2.2,2.2,0,0,0-.37-.05l-.36,0-.36,0a.84.84,0,0,0-.16.33,1.56,1.56,0,0,1-.1.37c-.05.11-.09.23-.13.34a2.92,2.92,0,0,0-.1.35,4.26,4.26,0,0,0,.63,0l.65,0h.66a1.16,1.16,0,0,1,.61.13.47.47,0,0,0,.06.09l.05.1s0,.08,0,.11v.14l-.12.24a.74.74,0,0,1-.22.1,1.17,1.17,0,0,1-.26,0H18l-.7,0v0l.33.48.34.48.34.48.32.48h0l.06.09a.54.54,0,0,1,0,.11s0,.08,0,.12v.13l-.12.23-.09.06-.11.05H18.3l-.3-.17c-.13-.21-.27-.43-.43-.64l-.45-.62-.45-.63a4.1,4.1,0,0,0-.48-.59c-.06.25-.13.5-.2.74l-.21.72c-.07.25-.13.48-.19.72a2.31,2.31,0,0,1-.29.7l-.09.06-.11,0h-.22Z"/><path class="cls-2" d="M27.16,14.34l-.24-.12-.05-.1a.19.19,0,0,1-.05-.1.49.49,0,0,1,0-.12v-.13l.11-.23.17-.16.56-.54c0-.1,0-.19.07-.29a.94.94,0,0,0,.05-.3v-.63a.53.53,0,0,1-.06-.14.31.31,0,0,0-.06-.13l-.08-.12a.38.38,0,0,0-.11-.11,3.1,3.1,0,0,0-.55-.26,2.07,2.07,0,0,0-.62-.12H25a4.41,4.41,0,0,0-.52,0l-.5.1-.5.1a4,4,0,0,1-.5.07l-.23-.12-.06-.09a.22.22,0,0,1,0-.11.34.34,0,0,1,0-.1v-.12l.12-.23a3.38,3.38,0,0,1,.83-.28,8.57,8.57,0,0,1,1.77-.19h.94a5,5,0,0,1,.52.07,2.72,2.72,0,0,1,.51.13,2.33,2.33,0,0,1,.45.22,2.66,2.66,0,0,1,.44.33,2.82,2.82,0,0,1,.29.39,1.27,1.27,0,0,1,.18.43,2.59,2.59,0,0,1,0,.48v.5c0,.14-.06.28-.08.43a3,3,0,0,1-.09.41.79.79,0,0,1-.23.35l-.32.31-.26.26-.12.12-.09.06a.21.21,0,0,1-.11,0l-.1,0Z"/><path class="cls-2" d="M33.08,14.66l-.23-.11-.08-.14a.43.43,0,0,1-.05-.16.91.91,0,0,1,0-.17v-.19c0-.48.06-1,.1-1.44s.07-1,.07-1.44l0-1.46c0-.48,0-1,.08-1.45h-.31l-.91,0-.08,0-.08,0-.09,0-.08,0a.24.24,0,0,0-.06-.09.21.21,0,0,1,0-.1.45.45,0,0,1,0-.11V7.56l.11-.23a.64.64,0,0,1,.38-.12h1.24c0-.14,0-.28,0-.42s0-.28.06-.41a2.87,2.87,0,0,0,0-.41.64.64,0,0,1,.15-.38l.09-.06.11,0h.22l.24.12a.24.24,0,0,0,.06.09.45.45,0,0,1,0,.23V6l0,.28,0,.28a1.33,1.33,0,0,0,0,.28,2.66,2.66,0,0,0,0,.3,1.33,1.33,0,0,0,.4,0h1.27l1.52,0,.24.12a.93.93,0,0,0,.05.1.19.19,0,0,1,0,.1.49.49,0,0,1,0,.12v.13L37.4,8a2.12,2.12,0,0,1-.75.14h-2.4l-.35,0a12.45,12.45,0,0,0-.08,1.63c0,.55,0,1.1,0,1.64s-.06,1.08-.1,1.61a11.91,11.91,0,0,1-.2,1.59l-.09.06-.1,0h-.23Zm4.25-.35-.44-.07a1.84,1.84,0,0,1-.42-.08,2.71,2.71,0,0,0-.41-.09,1.24,1.24,0,0,1-.4-.16.28.28,0,0,0-.07-.09.24.24,0,0,1-.06-.11.34.34,0,0,1,0-.1v-.12l.14-.23.11-.06.13,0h.28l.52.14a4.8,4.8,0,0,0,.57.11,3.75,3.75,0,0,0,.58,0h.6l.19,0,.17,0h.39l.23.12.06.09a.24.24,0,0,1,0,.1.45.45,0,0,1,0,.11v.12l-.12.23a1.4,1.4,0,0,1-.49.15,4.6,4.6,0,0,1-.52.06,3.25,3.25,0,0,1-.54,0Zm1.57-3.63q-.27-.12-.54-.21a3,3,0,0,0-.59-.13c-.2,0-.41,0-.62,0h-.62l-.42.08-.24-.12a.41.41,0,0,0-.06-.11.3.3,0,0,1,0-.11.52.52,0,0,1,0-.11V9.81l.12-.23a1.14,1.14,0,0,1,.37-.17,1.87,1.87,0,0,1,.42,0h.88l.46.07a3,3,0,0,1,.45.07,2.25,2.25,0,0,1,.42.13,1.56,1.56,0,0,1,.4.22l.06.09a.33.33,0,0,1,.05.12s0,.09,0,.12v.11l-.12.24a.16.16,0,0,0-.08.06.15.15,0,0,1-.1,0l-.1,0A.15.15,0,0,0,38.9,10.68Z"/></svg>